# xmcd
#
# Track frame offsets: 
#        150
#        7798
#        21989
#        38922
#        55750
#        97135
#        116353
#        128980
#
# Disc length: 1900 seconds
#
# Revision: 0
# Processed by: cddbd v1.5.2PL0 Copyright (c) Steve Scherf et al.
# Submitted via: ExactAudioCopy v0.99pb5
#
DISCID=5f076a08
DTITLE=Jean-Louis Aubert - Un Tour Sur Moi-Même [CD2]
DYEAR=2008
DGENRE=Acoustic
TTITLE0=Intro
TTITLE1=Milieu
TTITLE2=Les Plages
TTITLE3=Un autre monde
TTITLE4=Tel est l'amour
TTITLE5=Love In Vain
TTITLE6=L'Essentiel
TTITLE7=Là
EXTD=
EXTT0=
EXTT1=
EXTT2=
EXTT3=
EXTT4=
EXTT5=
EXTT6=
EXTT7=
PLAYORDER=
